/* XPM */
static char *_6631a8adade4ad7c0aaba6968c49c71GuOeH5Y7ir9nRvsM[] = {
/* columns rows colors chars-per-pixel */
"50 50 42 1 ",
"  c #27262D",
". c #28272E",
"X c #2A292F",
"o c #2A2931",
"O c #2C2B31",
"+ c #2E2D33",
"@ c #2E2D34",
"# c #302F35",
"$ c #323137",
"% c #333238",
"& c #343238",
"* c #35343A",
"= c #37363C",
"- c #38373C",
"; c #3B3A3F",
": c #3C3A3E",
"> c #3B3A40",
", c #3C3B40",
"< c #3E3C41",
"1 c #3F3F44",
"2 c #403F45",
"3 c #533746",
"4 c #543746",
"5 c #533847",
"6 c #543846",
"7 c #553948",
"8 c #434145",
"9 c #434248",
"0 c #47454A",
"q c #47464C",
"w c #4A474B",
"e c #49474D",
"r c #4A494D",
"t c #4B4A50",
"y c #4C4B51",
"u c #514D51",
"i c #555356",
"p c #565457",
"a c #5A585B",
"s c #5E5C61",
"d c #656366",
"f c #7E797A",
/* pixels */
"oO%-<Xo.XOX@o8+XoXOXXoXoXoXo.Xoo.yXoooXXo;@oXoo$oo",
"XXo@o%X;XXX$ooooX@ooooXXoooo*XooXXoooXoXX$oo=oo+Oo",
"#oO$o#oXXo+oooXoo>o+XoXXXooXooooX$oooooXXoXXoooooo",
"oOX+XXooooooXOoooO+O#Xo$ooooooooXo;XXooooXoo%XooXO",
"XooXooo@+ooooXooX@$XoXXXXooo+;X&ooXoXOXo@@ooX@X**;",
"oooXX+#ooXoOXXooooooXXooooXo#*ooo.O=XX%0oooXo+Xo@o",
"@;OXoXO+XXXXoXoXoooooooooXXXoooXOXOXoooXXOoXOXXX;o",
"O@o+>OOXXXXXXoXX*ooooXoooXoXoooXXoXXoooXooOXOXoXXX",
"ooooooXoXoooXXoXXoXooooooXoo*+$Oo+XoooXoXXXX$o+ooo",
"@oXooo$;oo$+XXoooXoo$XOXXoootXXXXooo.,oXOXXoooXOoo",
"oXoooo$ooo+oXooooXoXXo$oo#OoXoOXX@oo*p#XoXXXXoX@Xo",
"oXoooOoooooo&XXXooOoXo$oXooooXoXX@oooOooooXXXXo+o+",
"XooooXo+oooo+XXXoooooX#XXoooXXo<Ooooooo#o@XXoooOo#",
"-o@,oo#+o%XooooXooooooo%ooooXX+#oooOooooooXoooXoo@",
"X<O&ooXooXoooo*XXXo+Xo-OX&X+=XooooooXooXoXXooor@o<",
"XOooXXXo%XXooooXXXXoOoa$oXXXoooooXX+oXXXo<XooX-Oo8",
"oXo+OoXXXoXOooo&oX;o$o<ooXXXooooo-&O*oXXOrXo*+oooX",
"@X$Xo@+o-@X%#ooOX+#oX#oooXoXXXXoo+%oooooX+oo@+XoX$",
"Oo+@ooo+oXXooooooX>oX.oXoooXXXXo@XOXooo++@XoooOoXX",
"ooooooooXXXoXoooXXoXoo1<ooooooo%oOooooXs++OoXXXo*X",
"ooooooooXXXoooX%ooXoooOoooOoooXy@oXXXoXoooXXXXXOoo",
"ooooooooXoXoooXXoXoooo+oooooo@@XoXXXXo@oooXXXXXr=o",
"Xo+oooXoooXoXXXooXXooXoXXXoXXXOXoXXXooXoooooooXooo",
"Xy oooXXoXXoXXXOoO;XXXOo+XXXX@@o.XoXooooooo;iXoXXX",
"oXooooXXoXXoX$oX<XoXXXXX+oooXXoo0*XXooooooO*woXoOX",
"+,XooooooXXoooooooo%XXoXXOoooooooooXooXXXoXoOXXoOX",
"X+ooooooXXoooooooooXooX+X@<*oOoooXOXXooXXooXXXXXoX",
"oXooO@oooX+OooooooooXoXXX$fuoooooOX#eooOX$ooo++oXo",
"ooo&Xoooo-dXOOo@oXOXX+oOO+:$oooXOOooXXoooOOooXXoXX",
"oooXoXXoooOXXooooXXoo$o$+oooXXooXoOXXooXXo@Xoo%%oo",
"ooXXoooOXooXXoooo@XoooooooXXXoXXoXoooooXXXXoX;oooX",
"XXoooooooooXooXXooXX$XooooXXXXo%#oXXoooooXoXo@OX+X",
"XXoO+%oooOoXooo@oXXXXoXooXXo*..XoooooooXqXXXoXXXXX",
"ooooooooXooXXoXXoo%oXoooooooo%$ooXooXoooXoXXoXX@Xo",
"XOooooOooo@XoXoooXXXooXOooooO*ooo.ooXoXXXXXXOooXoX",
"oXooooXooo@@XXX$XXoooXX++ooooXo$.2@oXoXoXXXX$Xoooo",
"oXX+Xoooo+XXooo@ooooooXXXXoooooOoXXoXoXXXXoooXXXX+",
"oXXooooooXoXooooooooooXXXXXooooXo@XXooXoXXXoXXoXoX",
"oOOooooooXooooooooo#o-OoXX$XoooooooXXo$XXX&XXXoXXo",
"XXXoooXXooooooXXoooooo+ooX&oXXo*+ooo@>OoooXooo,Xoo",
"XXXoooX;ooooooXX@oooooXO@XooXoXXooooXXXXoo--oXXXXX",
"ooXoooOXoooooooooooooooXOXoXXoX<XoOooO%eXX@OoX@oXX",
"oooo@+oXoooXoXXoXoXOoXoXXoooo>OXO$oXO#XX%#XXoXXXXo",
"oooXXooXoooooXXoXXXoXXXXXoXOo@oooOOoXXoOoXX@oOoo%X",
"ooooOXoooXoooooooOXoooX#@oooXooXo.Oo;XooX<ooXXXX++",
"o@oooXXXooooooooOoXooOoXoooo.9XXX@X+o#ooXooOXooXXo",
"ooooooXOoooooooo@XoXooo#+oooXXXoXooe.+o*Xoo+XXXXXX",
"o@XXXXooXooXXoooXoXXooX$#oooXXooooooooOoXoOooooXoo",
"++++O++++O+O+@+@++@+++O++O++++++++++++++++O++O+++O",
"74353676356367665566773366665336666556657663536766"
};
