/* XPM */
static char *_d96a28a78344c76b153d1c1eea22c0bPp1LnPm3UOzIBBWl[] = {
/* columns rows colors chars-per-pixel */
"50 50 162 2 ",
"   c #27262D",
".  c #28272E",
"X  c #2A292F",
"o  c #352D2D",
"O  c #3B2E2A",
"+  c #2B2A31",
"@  c #302F34",
"#  c #323136",
"$  c #3C3432",
"%  c #34333A",
"&  c #38373D",
"*  c #3A393F",
"=  c #5A371F",
"-  c #5B381F",
";  c #402F28",
":  c #463126",
">  c #4C3224",
",  c #42312A",
"<  c #4B3429",
"1  c #46392F",
"2  c #523321",
"3  c #5A3720",
"4  c #5D3A23",
"5  c #50382C",
"6  c #423836",
"7  c #4C3E33",
"8  c #423C3C",
"9  c #613E24",
"0  c #524233",
"q  c #5A4734",
"w  c #5E4A34",
"e  c #654125",
"r  c #6E4726",
"t  c #6F4827",
"y  c #674429",
"u  c #6A462A",
"i  c #6A482E",
"p  c #744C28",
"a  c #794F29",
"s  c #7D522A",
"d  c #664E35",
"f  c #704F36",
"g  c #6A5136",
"h  c #735735",
"j  c #785A36",
"k  c #775438",
"l  c #79573B",
"z  c #7D5839",
"x  c #3D3C41",
"c  c #533745",
"v  c #543847",
"b  c #563A48",
"n  c #444145",
"m  c #46444A",
"M  c #49474C",
"N  c #4B494D",
"B  c #594B40",
"V  c #4C4B50",
"C  c #565457",
"Z  c #82552B",
"A  c #86592C",
"S  c #895B2C",
"D  c #825B36",
"F  c #835C38",
"G  c #95642F",
"H  c #8C6237",
"J  c #826139",
"K  c #8B663A",
"L  c #986630",
"P  c #9B6830",
"I  c #916539",
"U  c #946C3A",
"Y  c #A26D32",
"T  c #AE7735",
"R  c #A7763F",
"E  c #AA793D",
"W  c #B57B36",
"Q  c #B27D3C",
"!  c #805E42",
"~  c #836244",
"^  c #9A6F41",
"/  c #947251",
"(  c #A47644",
")  c #AC7A42",
"_  c #A07C5A",
"`  c #B4803D",
"'  c #BB833C",
"]  c #C2863B",
"[  c #C4893D",
"{  c #CB8D3C",
"}  c #D4923E",
"|  c #DA963E",
" . c #DE993F",
".. c #E19B3E",
"X. c #B98548",
"o. c #B49069",
"O. c #BD986F",
"+. c #C78C42",
"@. c #C88C41",
"#. c #CE9042",
"$. c #DD9B43",
"%. c #D49749",
"&. c #D6994A",
"*. c #D99B4A",
"=. c #E39C40",
"-. c #E19F48",
";. c #DFA251",
":. c #E6A043",
">. c #E4A24C",
",. c #E9A54D",
"<. c #E5A552",
"1. c #E6A856",
"2. c #E9A953",
"3. c #E7AA5B",
"4. c #DEA863",
"5. c #CFAA7E",
"6. c #E2AB62",
"7. c #E8AF64",
"8. c #E4AF68",
"9. c #E7B067",
"0. c #E9B166",
"q. c #E5B16D",
"w. c #EAB36B",
"e. c #E6B673",
"r. c #EBB670",
"t. c #EBB975",
"y. c #EBBC7D",
"u. c #D4AF81",
"i. c #DBB586",
"p. c #EDBF81",
"a. c #E4BE8C",
"s. c #EDC084",
"d. c #EDC38C",
"f. c #F0C488",
"g. c #ECC592",
"h. c #EFC996",
"j. c #EFCB99",
"k. c #F2CB97",
"l. c #F2CC99",
"z. c #F0CFA0",
"x. c #F3D3A6",
"c. c #F4D6AC",
"v. c #F3D7B0",
"b. c #F5D9B2",
"n. c #F7DEBB",
"m. c #F8DEBA",
"M. c #F8DFBC",
"N. c #F8E0BF",
"B. c #F7E0C0",
"V. c #F9E3C4",
"C. c #FAE3C4",
"Z. c #FAE7CB",
"A. c #FAE8CD",
"S. c #FBE9CD",
"D. c #FCEBD2",
"F. c #FCECD4",
"G. c #FDEED7",
"H. c #FDEFD9",
"J. c #FEF0DA",
"K. c #FFF2DE",
"L. c #FFF3E0",
"P. c #FFF4E1",
/* pixels */
"+ + % & x X + . X + X + + n + X + X + X X + X + X + X + . X + + . V X + + + X X + * + + X + + # + + ",
"X X + + + % X * X X X # + + + + X + + + + + X X + + + + % X + + X X + + + X + X X # + + & + + + + + ",
"@ + + # + @ + X X + + + + + X + + x + + X + X X X + + X + + + + X # + + + + + X X + X X + + + + + + ",
"+ + X + X X + + + + + + X + + + + + + + @ X + # + + + + + + + + X + * X X + + + + X + + % X + + X + ",
"X + + X + + + + + + + + + X + + X + # X + X X X X + + + + * X % + + X + X + X + + + + + X + X % % * ",
"+ + + X X + @ + + X + + X X + + + + + + X X + + + + X + @ % + + + . + & X X % m + + + X + + X + + + ",
"+ * + X + X + + X X X X + X + X + + + + + + + + + X X X + + + X + X + X + + + X X + + X + X X X * + ",
"+ + + + x + + X X X X X X + X X % + + + + X + + + X + X + + + X X + X X + + + X + + + X + X + X X X ",
"+ + + + + + X + X + + + X X + X X + X + + + + + + X + + % + # + + + X + + + X + X X X X # + + + + + ",
"+ + X + + + # * + + # + X X + + + X + + # X + X X + + + V X X X X + + + . x + X + X X + + + X + + + ",
"+ X + + + + # + + + + + X + + + + X + X X + # + + @ + + X + + X X + + + % C @ X + X X X X + X + X + ",
"+ X + + + + + + + + + + % X X X + + + + X + # + X + + + + X + X X + + + + + + + + + X X X X + + + + ",
"X + + + + X + + + + + + + X X X + X o O ; ; < : > > : : : ; O 6 @ + + + + + + @ + + X X + + + + + @ ",
"& + + x + + @ + + % X + + + o ; > 2 2 2 9 p s s S S Z s p e 2 2 2 > ; o + + + + + + X + + + X + + + ",
"X x + % + + X + + X + + O > 2 3 s P ' } |  .....=.=..... .| } [ Y s 4 2 > O + X + X X + + + N + + x ",
"X + + + X X X + % X O > 2 t Y } ..=.=.=...................=.=.=.=...| T a 2 2 O + x X + + X & + + n ",
"+ X + + + + X X X : 2 e W  .=.=.....<.0.p.l.x.x.m.m.x.x.k.t.0.>.....=.=...] p 2 : n X + % + + + + X ",
"+ X # X + + + + 5 2 Z } =.....7.l.C.G.J.h.e.P.K.K.K.G.q.j.K.J.G.m.d.1.....=. .G 2 > X + + + X + X # ",
"+ + + + + + + , 2 s  ...=.y.C.H.K.A.K.K.G.H.K.K.K.K.Z.q.n.K.K.L.K.K.G.b.0...=...L 2 : + + + + + X X ",
"+ + + + + + + 2 4 } ..1.m.K.L.K.C.A.K.K.K.K.K.K.K.K.K.K.K.K.G.s.L.J.v.L.K.c.>.=. .r 2 X X X X + % X ",
"+ + + + + + o 2 A =.7.D.G.c.c.K.K.Z.H.K.K.D.G.B.A.K.x.K.K.K.D.M.K.H.b.L.x.$.N.<.=.Y 2 O X X X + + + ",
"+ + + + + + , 2 L >.D.K.K.H.H.K.H.y.G.K.K.C.K.j.C.K.e.K.K.K.J.K.K.K.K.c.G.C.K.n...W 2 O X X X N & + ",
"X + + + + + 1 2 Z f.K.L.K.K.K.K.K.n.H.K.K.K.K.G.G.K.D.K.K.C.$.J.K.K.M.N.K.K.K.l.=.L 2 1 + + X + + + ",
"X V   + + + 0 Z 4 4.G.b.L.K.M.G.G.C.K.K.K.K.K.G.C.K.K.K.K.C.h.K.K.K.K.K.K.K.A.>.;.9 p B C X + X X X ",
"+ X + + + + 7 } 4 D 3.b.L.K.D.H.c.K.K.K.H.K.K.K.K.K.z.D.K.K.K.K.H.C.G.K.K.Z.3.=.I 9 ] 8 M + X + + X ",
"+ x X + + + $ :.{ e D &.0.c.J.H.q.K.K.x.y.L.b.c.K.G.8.K.K.K.K.K.H.C.D.G.l.>.-.H 9 { [ + + X X + + X ",
"X + + + + + @ { =.} F 4 ) >.>.s.b.H.P.J.H.K.p.6.P.K.H.K.K.K.K.L.P.N.d.>.:.X.y s } =.U X X X X X + X ",
"+ X + + + + + E =...9.5.! 4 ( +.,.>.w.l.b.Z.G.K.P.P.P.P.A.m.x.p.1.>.*.R y l X...=.$.w + + + + + X + ",
"+ + + % X + + w :.=.>.k.h.i._ f 9 ^ E @.<.2.,.,.2.0.,.,.2.<.%.Q ( u l / u.h.1.=.=.{ + + + X X + X X ",
"+ + + X + X X @ [ =.=.y.k.k.k.g.a.O./ ~ l i 3 - z u = 3 u k ~ / o.i.g.k.k.k.>.=.=.h + X + + % % + + ",
"+ + X X + + + + q =...<.k.k.k.k.k.k.l.k.g.g.a.a.a.a.a.a.d.g.h.k.k.k.k.k.k.p...=.[ + X + X * + + + X ",
"X X + + + + + + + J =.=.w.l.k.k.k.k.k.k.k.k.k.k.k.k.k.k.k.k.k.k.k.k.k.k.k.1.=. .0 X + X + + + X + X ",
"X X + + + % + + + + K =.=.t.l.k.k.k.k.k.k.k.k.k.k.k.k.k.k.k.k.k.k.k.k.k.r...=.h M X X X + X X X X X ",
"+ + + + + + + + X + + h $.=.w.k.k.k.k.k.k.k.k.k.k.k.k.k.k.k.k.k.k.k.k.0.=.=.j + X + X X + X X + X + ",
"X + + + + + + + + + + X 7 ' =.<.s.l.k.k.k.k.k.k.k.k.k.k.k.k.k.l.k.y.<.=.[ q X X X X X X + + + X + X ",
"+ X + + + + X + + + + + X o h #.:.<.t.d.l.l.k.l.l.k.l.l.l.k.p.0.>.=.} J @ + X + X X X X # X + + + + ",
"+ X X + X + + + + + X X + + + # g Q =.:.>.1.0.0.0.0.7.1.>.-.=. .' h $ + X + X X X X + + + X X X X + ",
"+ X X + + + + + + X + X + + + + + + $ g U ` ] } } } } ' E K d $ + + X X + + X + X X X + X X + X + X ",
"+ + + + + + + + + X + + + + + + + + + # + * + + + X # X + + + + + + + X X + # X X X % X X X + X X + ",
"X X X + + + X X + + + + + + X X + + + + + + + + + X % + X X + % + + + + + x + + + + X + + + x X + + ",
"X X X + + + X * + + + + + + X X + + + + + + X + + X + + X + X X + + + + X X X X + + & & + X X X X X ",
"+ + X + + + + X + + + + + + + + + + + + + + + X + X + X X + X x X + + + + + % M X X + + + X + + X X ",
"+ + + + + + + X + + + X + X X + X + X + + X + X X + + + + x + X + # + X + @ X X % @ X X + X X X X + ",
"+ + + X X + + X + + + + + X X + X X X + X X X X X + X + + + + + + + + + X X + + + X X + + + + + % X ",
"+ + + + + X + + + X + + + + + + + + X + + + X @ + + + + X + + X + . + + * X + + X x + + X X X X + + ",
"+ + + + + X X X + + + + + + + + + + X + + + + X + + + + . n X X X + X + + @ + + X + + + X + + X X + ",
"+ + + + + + X + + + + + + + + + + X + X + + + @ + + + + X X X + X + + M . + + % X + + + X X X X X X ",
"+ + X X X X + + X + + X X + + + X + X X + + X # @ + + + X X + + + + + + + + + + X + + + + + + X + + ",
"+ + + + + + + + + + + + + + + + + + @ + + + + + + + + + + + + + + + + + + + + + + + + + + + + + + + ",
"b c c v c v b v c v v v v b v v v v v v b b v v v v v v v c c v v v v v v v v v b v v v v c v b v v "
};
