/* XPM */
static char *_740e6d9d171416bb640439b8623e54eP9gtEG2Q04GK4UgI[] = {
/* columns rows colors chars-per-pixel */
"50 50 206 2 ",
"   c #1B151E",
".  c #1C1A1E",
"X  c #1E1C23",
"o  c #1E1F28",
"O  c #281526",
"+  c #221D25",
"@  c #2A1E24",
"#  c #241E28",
"$  c #291F29",
"%  c #222226",
"&  c #2B2225",
"*  c #26252C",
"=  c #29272E",
"-  c #26292D",
";  c #29282F",
":  c #312525",
">  c #31252D",
",  c #332A2C",
"<  c #382C2D",
"1  c #292730",
"2  c #252C32",
"3  c #2A2A31",
"4  c #322633",
"5  c #332C34",
"6  c #3A2E33",
"7  c #372C38",
"8  c #3A2E3A",
"9  c #2E3132",
"0  c #2B353A",
"q  c #323136",
"w  c #3C3234",
"e  c #353B35",
"r  c #3A3A36",
"t  c #34333A",
"y  c #3C333B",
"u  c #333A3D",
"i  c #3A3A3D",
"p  c #423435",
"a  c #483837",
"s  c #42353C",
"d  c #453A3B",
"f  c #4A3C3D",
"g  c #503A3C",
"h  c #384037",
"j  c #3B423C",
"k  c #44423D",
"l  c #4F403E",
"z  c #44493F",
"x  c #52413F",
"c  c #2B3B41",
"v  c #3D3C42",
"b  c #3B3A46",
"n  c #433641",
"m  c #493641",
"M  c #433B44",
"N  c #4C3C42",
"B  c #433D4A",
"V  c #4C3F4A",
"C  c #503F43",
"Z  c #374447",
"A  c #3D4340",
"S  c #3C4B4B",
"D  c #3E514E",
"F  c #3A4D54",
"G  c #395558",
"H  c #375C63",
"J  c #3B666A",
"K  c #3B6973",
"L  c #3A737C",
"P  c #434544",
"I  c #4D4242",
"U  c #454B46",
"Y  c #4A4C45",
"T  c #46444A",
"R  c #49434D",
"E  c #4B4A4B",
"W  c #534344",
"Q  c #584747",
"!  c #534B43",
"~  c #5A4B46",
"^  c #564548",
"/  c #594748",
"(  c #544D4C",
")  c #5D4A49",
"_  c #4C5147",
"`  c #475149",
"'  c #4B554B",
"]  c #4D584D",
"[  c #53544B",
"{  c #5B534B",
"}  c #525A4F",
"|  c #5C594F",
" . c #454750",
".. c #4B4552",
"X. c #4D4A52",
"o. c #504753",
"O. c #544956",
"+. c #584B5C",
"@. c #4A5757",
"#. c #445E5D",
"$. c #555353",
"%. c #535B52",
"&. c #5B5C51",
"*. c #54535C",
"=. c #5C525E",
"-. c #565858",
";. c #5C5E5A",
":. c #624E4C",
">. c #65524D",
",. c #68534F",
"<. c #635652",
"1. c #655A52",
"2. c #6C5D56",
"3. c #60515D",
"4. c #715F58",
"5. c #43625E",
"6. c #4B6259",
"7. c #556255",
"8. c #5B6356",
"9. c #5B665A",
"0. c #576A5B",
"q. c #5C6A5B",
"w. c #656357",
"e. c #6D6157",
"r. c #65655B",
"t. c #626C5E",
"y. c #6F685C",
"u. c #726459",
"i. c #76685E",
"p. c #465C62",
"a. c #4A5E64",
"s. c #5D5563",
"d. c #5D5568",
"f. c #655965",
"g. c #6B5D71",
"h. c #456563",
"j. c #4B6464",
"k. c #4C6B64",
"l. c #4B6C6C",
"z. c #556664",
"x. c #5B6A65",
"c. c #536C6E",
"v. c #55746C",
"b. c #496E73",
"n. c #586776",
"m. c #4C7573",
"M. c #45737A",
"N. c #45797C",
"B. c #4A7E7D",
"V. c #587774",
"C. c #5E737E",
"Z. c #636D62",
"A. c #6A6D62",
"S. c #68626F",
"D. c #776C66",
"F. c #7C6D62",
"G. c #667163",
"H. c #6A7867",
"J. c #69796C",
"K. c #757468",
"L. c #6F7571",
"P. c #767E71",
"I. c #837266",
"U. c #857569",
"Y. c #8A7A6D",
"T. c #817270",
"R. c #54827B",
"E. c #6B857E",
"W. c #778879",
"Q. c #7D917C",
"!. c #948272",
"~. c #467F84",
"^. c #577982",
"/. c #617784",
"(. c #787081",
"). c #3D8F96",
"_. c #44858C",
"`. c #4D8489",
"'. c #458B8E",
"]. c #548384",
"[. c #588583",
"{. c #5C8A84",
"}. c #5C8189",
"|. c #538B8D",
" X c #57918F",
".X c #468992",
"XX c #4C8D91",
"oX c #508D91",
"OX c #499698",
"+X c #4F9499",
"@X c #579797",
"#X c #6A8882",
"$X c #62948A",
"%X c #669891",
"&X c #56A09C",
"*X c #68A69B",
"=X c #6CAA9E",
"-X c #57A7A4",
";X c #69ACA2",
":X c #6DB3A5",
">X c #66B2A9",
",X c #6BB6AB",
"<X c #6FBAAD",
"1X c #79B9A7",
"2X c #6ABBB1",
"3X c #839681",
/* pixels */
"1 3 3 v M * ; ; ; ; 3 3 * v t * 3 * 3 3 3 3 3 3 3 3 ; ; ; = 3 ; 3 T 3 ; = 3 3 3 * t 5 = = ; 3 3 3 3 ",
"= 3 3 3 ; 3 q i = ; 3 5 3 5 3 = 3 5 = ; ; 3 3 ; 3 = ; 3 3 ; 3 ; 3 t 3 3 3 3 3 3 3 3 ; ; t 3 = ; 3 3 ",
"3 3 ; 5 ; 3 3 3 ; ; 3 = ; 3 * 3 3 t = 3 3 ; ; = = 3 3 3 ; 3 3 1 3 3 ; ; ; 3 3 3 = 3 3 = 5 3 ; ; ; = ",
"3 3 = 3 ; ; * ; ; ; ; 3 ; ; ; 3 = 3 3 ; 3 3 ; 3 3 3 3 3 = * 3 3 = 3 t 3 = 3 ; * 3 3 ; 3 3 = ; = ; 3 ",
"= 3 ; ; ; 3 3 3 3 3 3 3 3 ; ; = * 3 5 = 3 ; = ; ; 3 3 * q i 3 q 3 ; ; 3 ; ; 3 q 3 3 ; 3 3 3 * i i t ",
"= = ; ; * 5 q = 3 ; = 3 3 3 3 = * * = ; ; * = ; * 3 3 = q i ; * # * 3 t 3 * t T * 3 3 3 ; 3 = 3 3 = ",
"3 t = ; = ; ; 3 ; ; ; 3 * = % % q i * * + 3 ' ; % % # # + X % u #.u = 3 ; 3 3 * ; 3 ; 3 ; ; 3 * q 3 ",
"3 5 ; 3 t 3 3 3 3 3 = * u 0 d 1.I q 9 i E 9.j % q P ` ' U j G -X;Xu * ; ; 3 3 3 3 3 3 3 3 ; ; ; 3 3 ",
"3 ; 3 3 3 3 * 3 3 3 = V.<XOXL.[ 9.q.7.7.7.] i t P i e e j z k.{.Z + ; = ; * ; 3 3 3 3 = 3 3 3 3 = 3 ",
"3 3 1 = * ; i i = = 5 S J E.8.J.9.e % . - 9 9 U %.j 9 9 - % - z t.q + = ; t 3 = 3 3 3 3 3 3 3 3 3 3 ",
"3 3 3 3 3 3 q 3 = ; 3 # & u.H.' .     s e.1.d + % P | &.r.D.k , 8.G.* * 3 X.t * 3 3 3 3 3 ; 3 3 3 3 ",
"3 ; ; 3 3 3 = = ; ; = ; i t.%.+   7  XoX3   I F.<.~ 2.2.I.Y.2.~ ~ G.%.+ * 3 3 = ; 3 3 3 ; ; ; 3 3 3 ",
"= 3 ; = 3 ; 3 3 ; ; 3 * A q.% & 4 Z =XH 4 +   , <.U.Y.F.! , +   & [ G.; % * ; 3 3 3 3 3 3 ; ; 3 ; q ",
"t * q t = = 3 5 3 5 ; + U ] 5.@.i 5 8 = 8 1 1 * # + # # + * 4 6 $ w q.i + ; 3 3 ; 3 ; ; 3 3 * 3 ; 3 ",
"3 t q q = ; * = ; 3 = * ' [ j.#.r O 8 7 y 7 4 7 8 = 7 7 = = c.=Xb , 9.A X + * = ; * = 3 3 ; T t = t ",
"= 3 ; = ; = 3 3 3 3 * * ] _ :.} D l.B 7 s 8 7 7 y 4 8 8 = 4 B N.@.p 9.] 5 h.{.3 ; i 3 3 = 3 i q * v ",
"; ; * 3 3 3 3 ; 3 3 * 3 7.r w.9.H [.n 7 s y 7 4 L.Z.4 y = 5 8 $ >.( 9.}  .@X#.+ t T 1 3 q 3 * * ; 3 ",
"3 ; t 3 3 3 3 3 t 3 = 3 7.k 9._ + > 8 8 d s 4 $.Q.Q.( 8 3 4 n # ! Y.%.] ..3 X * 3 3 * 3 3 3 3 3 ; 5 ",
"3 = 3 3 = 3 ; 3 3 = * * ] q.7.{ w 4 y 8 f s 8 E Z.Z.E s 4 4 s 1 & F.%.} G _.Z ; 3 3 = = = 3 3 3 3 ; ",
"3 3 = = ; = 3 3 3 = * * ` H.j ! <.= 8 y N s 8 4 G.Z.6 m 5 7 n 5 & i.} } @.,X*XT t 3 3 3 3 1 3 = 5 3 ",
"3 3 3 3 3 ; 3 3 ; ; * * U t.e w e.> 6 y N s 8 n [ U f N 7 6 n 6 & I.| } +.F k.* ; ; 3 3 3 3 = 3 3 = ",
"3 3 3 3 3 3 3 ; = = * y -.9.j & e.p 4 y N s y n p & f N 7 y N 8 + F.y.] d.# % = ; ; = 3 3 3 * T i * ",
"; 3 3 3 3 3 3 = 9 3 + B -.8.P & F.I 4 s N s y m N y f N 6 s N y $ { U.] *.* * = = 3 3 * * ; 3 3 3 3 ",
"= T 3 * 3 3 3 * u %X; B X.9.U , F.f 6 s N s s N d y f N 8 s C s 4 w I.&.P + * * = 3 * v $.; 3 = = 3 ",
"= = 3 * ; ; ; * 3 +Xc M ..8.] I U., d y N s s N s y f N y s W s 6 & 2.w.' + * = 3 3 * i E 3 ; ; 3 ; ",
"3 t * ; ; ; * c L K X B ..7.9.U.i.: N y N s s W d y f N y d f s 5 , <.e.q.; % * ; 3 ; * * 3 ; ; 3 ; ",
"3 5 ; 3 ; 3 + l.+XF M ..=.%.Z.!.w < N y N s s W d y N N s I A.$.& y e.u.t.i X * = = ; ; 3 3 = 3 3 = ",
"; = 3 ; 3 3 = u 3 * R f.S.7.7.{ & a N w N s s ^ m s C N s $.Q.8.& n D.F.t.U X ; ; 3 3 3 ; 3 3 3 3 3 ",
"; ; ; 3 3 3 3 = * i E * X.7.] w & W f 6 N s s W N s W N d I Q.;.$ n T.U.&.' X * = 3 3 1 = 3 ; ; 3 3 ",
"; 3 ; 3 3 3 3 3 * + 3 X P 9.U & 6 W f 6 N y w W N s W N d 9.3XA.@ R D.!.%.m.0 + ; 3 3 = 3 ; q q 1 3 ",
"3 3 3 3 = = 3 = 0 j.0 , 1.7.r 6 w W d w W w w ^ N s W N s e W.P.@ o.f.!.;.+X=X* * 3 3 3 = i t 3 3 3 ",
"3 = ; = 3 3 3 = u *X&X@.w.7.w w p ~ M d W 6 s Q N d W N N @ G.Z.& =.+.F.w.0.5.; ; 3 3 3 * 3 3 = 3 3 ",
"3 3 ; ; 5 t * 3 * 3 J x.r.%.i 6 j.:X@.N W 6 d ~ W d W N W , ` } & =.+.4.w.7.; X i 3 * 3 3 1 = 3 ; ; ",
"3 3 ; ; = 3 3 = 3 # w D.q.U o.s M.j.p ^ W 6 N ) W f W N ^ 6 , N , o.s.L.w.] A % * = 3 3 3 ; 3 3 3 3 ",
"3 3 ; = ; 3 3 3 3 o <.#Xv.i f.f.V p d ^ W 6 W :.W f W W ~ d p ^ , M C.;X$Xm.@XF + 3 3 3 3 ; ; = 3 3 ",
"3 3 ; 3 ; ; 3 ; * ; U.E.;Xm.C.(.V a f ) ^ w W ) ^ f W ^ ) N N g , M =.J .X+X].2 % * ; 3 q 3 3 3 ; 3 ",
"3 3 3 3 ; ; 3 ; * i K.$X>X'.^.g.s a d :.Q w W / / f W ~ :.f I p.u y O.a.,X~.M.Z X * * 3 3 3 3 3 ; 3 ",
"3 3 3 3 3 3 3 3 X d A.%XXXL }.*.6 f d :.~ w I Q ) f N ) :.a V..X*.n s.c.|.N.[.] . * = ; ; ; ; ; ; = ",
"3 3 3 = 1 3 3 * S J.A.[._.@X/.T 6 I a ~ ) 6 l ~ ) f f :.:.f -.I M d.S.*.E.z.#XG.0 2 3 3 ; ; ; ; = ; ",
"; ; 3 ; = ; ; + h.2XR.H.@X:Xn.E p W f ^ ) 6 l ~ ) f f :.>.f W W & a.K `.%X! 0.b.XXF + ; = 3 q ; ; ; ",
"; ; 3 ; ; 3 * v.*X).B.8.m.|.oXR.a W f ! ) w f ) ) W d :.>.f ^ ) : l._.L V.{ G L m.% 3 q * 3 3 ; ; ; ",
"3 3 = = = = u 1X>X'.z.7.S ~.n.M p W f ^ ~ w d ) ^ W d :.:.f W ) l.`.L K r.! 6.B.$X; = 3 = = 3 3 = ; ",
"3 ; = 3 3 3 3 u x.%.' ] e b.O.n a ^ f ) ) w d >.W Q d >.,.W x <.@X|.z.Z.| k ' ' k.u % * ; 3 ; ; 3 ; ",
"3 ; ; ; 3 3 = * p r j h e t b y w s y N f w w I d d y I I d s I S b 3.{ ! Y e e r * * 3 3 3 1 3 q = ",
"; ; ; = 3 ; 3 = * * 3 * * % * * * ; = * * 3 * 3 3 * ; * * 3 3 * * = 3 * q ; * * * t * ; 3 3 3 = 3 3 ",
"= 3 3 ; ; ; 3 3 3 ; * * = = = * 3 ; ; 3 3 3 3 ; ; ; ; ; 3 i 3 3 3 3 * 3 3 3 * = = ; ; 3 3 3 3 3 ; ; ",
"; ; 3 3 ; 3 3 3 3 3 ; ; = 3 3 3 3 ; ; ; 3 3 = t 3 = ; ; 3 3 ; ; 3 3 3 v 3 3 3 3 ; ; 3 3 ; ; 3 3 ; 3 ",
"= 3 3 3 3 = 3 3 = = ; ; ; 3 1 1 3 3 ; = ; 3 * t 5 ; ; = 3 = = ; ; = 3 = = = ; ; ; 3 3 1 ; ; = = ; = ",
"3 3 3 3 3 3 3 3 3 ; 3 3 3 3 3 3 3 3 3 3 3 3 3 ; 3 3 3 3 3 3 3 3 3 3 3 3 3 3 3 3 3 3 3 3 3 3 3 3 3 ; ",
"N m m m m m N N m m m m m N N m m m m m N m m m m m m m m d m m N N m m m m m m N m m m m m m N N m "
};
