/* XPM */
static char *_d3c70a7f74a4f06f88b5ceccdb96ef6FhDpdMEueKsueWQr[] = {
/* columns rows colors chars-per-pixel */
"50 50 161 2 ",
"   c #030000",
".  c #0B0B0C",
"X  c #140101",
"o  c #1E0102",
"O  c #120905",
"+  c #160C0B",
"@  c #1A0D09",
"#  c #160E12",
"$  c #0D1217",
"%  c #0E141A",
"&  c #0F181F",
"*  c #141315",
"=  c #1C1414",
"-  c #14161A",
";  c #1B171B",
":  c #16191E",
">  c #1B191D",
",  c #260001",
"<  c #230709",
"1  c #230F08",
"2  c #340303",
"3  c #3C0102",
"4  c #390608",
"5  c #3E0A0E",
"6  c #24120B",
"7  c #2B140B",
"8  c #31170C",
"9  c #36190E",
"0  c #3D1C0F",
"q  c #340E12",
"w  c #241513",
"e  c #271813",
"r  c #2B1913",
"t  c #24141A",
"y  c #2E161C",
"u  c #221A1C",
"i  c #2A1C19",
"p  c #3A1013",
"a  c #301912",
"s  c #3C1C11",
"d  c #34141A",
"f  c #141C24",
"g  c #1C1D22",
"h  c #151F28",
"j  c #1B1F28",
"k  c #221E24",
"l  c #2D1E24",
"z  c #1D2126",
"x  c #16212A",
"c  c #18232E",
"v  c #172530",
"b  c #1A2632",
"n  c #1C2A36",
"m  c #1E2D3A",
"M  c #1F313F",
"N  c #222125",
"B  c #2A2525",
"V  c #25242A",
"C  c #28272E",
"Z  c #2A292F",
"A  c #302927",
"S  c #3D2C25",
"D  c #332C28",
"F  c #212732",
"G  c #2B2A31",
"H  c #302F35",
"J  c #3B2F33",
"K  c #21313E",
"L  c #323136",
"P  c #343339",
"I  c #38373D",
"U  c #3A393F",
"Y  c #430305",
"T  c #4E0103",
"R  c #4C0709",
"E  c #42090D",
"W  c #4E090D",
"Q  c #540103",
"!  c #5C0103",
"~  c #51090D",
"^  c #56110A",
"/  c #471319",
"(  c #640203",
")  c #6C0001",
"_  c #640609",
"`  c #740002",
"'  c #7D0001",
"]  c #472112",
"[  c #4B2313",
"{  c #522614",
"}  c #572815",
"|  c #5C2A17",
" . c #622D19",
".. c #682F19",
"X. c #6B311A",
"o. c #74351C",
"O. c #79371D",
"+. c #7A381E",
"@. c #462C29",
"#. c #46322A",
"$. c #533327",
"%. c #5A3627",
"&. c #413631",
"*. c #473932",
"=. c #453F3C",
"-. c #603524",
";. c #644538",
":. c #233444",
">. c #253748",
",. c #273A4B",
"<. c #3D3C41",
"1. c #533745",
"2. c #543847",
"3. c #563A48",
"4. c #424145",
"5. c #454449",
"6. c #49474C",
"7. c #4B494D",
"8. c #564A44",
"9. c #5C4D45",
"0. c #5A4F4A",
"q. c #4D4B51",
"w. c #565457",
"e. c #69554B",
"r. c #635751",
"t. c #665953",
"y. c #6E5C54",
"u. c #73645C",
"i. c #5E5C61",
"p. c #656366",
"a. c #7E6D64",
"s. c #830002",
"d. c #8B0001",
"f. c #930002",
"g. c #9D0002",
"h. c #A30002",
"j. c #A90002",
"k. c #887066",
"l. c #84726A",
"z. c #8A776D",
"x. c #927E74",
"c. c #968278",
"v. c #98847A",
"b. c #9F8B80",
"n. c #A38A80",
"m. c #A28C82",
"M. c #A69085",
"N. c #A89286",
"B. c #AB9589",
"V. c #B0998D",
"C. c #B59C91",
"Z. c #B89F93",
"A. c #BCA396",
"S. c #C1A79A",
"D. c #CFB4A7",
"F. c #D2B7A9",
"G. c #D5B9AB",
"H. c #D7BAAC",
"J. c #DEC1B2",
"K. c #EDCDBE",
"L. c #F1D1C1",
/* pixels */
"G G P I <.Z G C Z G Z G G 4.G Z G Z G Z Z G Z G Z G Z G C Z G G C q.Z G G G Z Z G U G G Z G G L G G ",
"Z Z G G G P Z U Z Z Z L G G G G Z G G G G G Z Z G G G G P Z G G Z Z G G G Z G Z Z L G G I G G G G G ",
"H G G L G H G Z Z G G G G G Z G G <.G G Z G Z Z Z G G Z G G G G Z L G G G G G Z Z G Z Z G G G G G G ",
"G G Z G Z Z G G G G G G Z G G G G G G G H Z G L G G G G G G G G Z G U Z Z G G G G Z G G P Z G G Z G ",
"Z G G Z G G G G G G G G G Z G G Z G L Z G Z Z Z Z G G G G U Z P G G Z G Z G Z G G G G G Z G Z P P U ",
"G G G Z Z G H G G N G G Z Z G G G G G G Z Z G G g u u k k H G G G C G I Z Z P 5.G G G Z G G Z G G G ",
"G U G Z G Z G G Z * V Z G Z G Z G G G G G G V e | O. .} O.[ ] { i V G Z G G G Z Z G G Z G Z Z Z U G ",
"G G G G <.G G Z Z N . Z Z G Z Z P G G G G Z e }  .O.+.+.+.+.+.+.o.e Z Z G G G Z G G G Z G Z G Z Z Z ",
"G G G G G G Z G Z G = ; Z Z G Z Z G Z G G g  .| X.+.+.+.+.+.+.O.X.| > G G G Z G Z Z Z Z L G G G G G ",
"G G Z G G G L U G G H + N Z G G G Z G G L u o.O.+.O.+.+.+.+.+.+. .} e G C <.G Z G Z Z G G G Z G G G ",
"G Z G G G G L G G G G k + G G G G Z G Z Z u } +.o.| +.+...+.O.X.O.X.s G P w.H Z G Z Z Z Z G Z G Z G ",
"G Z G G G G G G G G G G i ; Z Z G G G G Z u s 1 6 ] O.O.e | O.| +.O.s G G G G G G G Z Z Z Z G G G G ",
"Z G G G G Z G G G G G G C 6 N Z G G G G G N . $.e.&.;.8 a.S r -.+.O.e G G G G H G G Z Z G G G G G H ",
"I G G <.G G H G G P Z G G ; 6 N G G G G G - k B.c.C.l.b.c.G.G.9.%. .> G G G G G G G Z G G G Z G G G ",
"Z <.G P G G Z G G Z G G G G w *.k Z G G Z * Z m.N.n.8.C.8.Z.K.y.x.A Z G Z G G Z G Z Z G G G 7.G G <.",
"Z G G G Z Z Z G P Z Z G G G > D u.> Z G G N B L.H.u.F.v.L.L.M.G.C.N Z G G Z Z Z G <.Z G G Z I G G 4.",
"G Z G G G G Z Z Z G Z G G N x.v.&.x f Z L G N N.C.S.V.A.m.m.G.r.N I P G P G Z Z G 7.Z G P G G G G Z ",
"G Z L Z G G G G I G Z P H C t.D.#.z >.: Z H V 0.J.L.L.L.L.L.n.# G G P G G G G G Z G G G G G Z G Z L ",
"G G G G G G G G G Z Z G G G N z z 7 n n N C N f + y.x.z.k.#.2 ) - V G Z G G G G G G Z G G G G G Z Z ",
"G G G G G G G G Z Z Z G Z G - >.m n n >.c f m j d.9 o.2 o.r W f.g f Z G G G Z i.G G G G Z Z Z G P Z ",
"G G G G G G G G Z Z Z G G C x c >.>.>.,.,.,.>.4 ( O 1 ) 7 x q s.W >.> Z Z G Z G G G Z Z Z Z Z G G G ",
"G G G G G G G G Z G Z G G g x K >.>.,.>.,.>.n s.j.. ^ j.. c E j.! ,.x C Z G G G G G Z Z Z Z Z 7.I G ",
"Z G G G G G Z G G G Z G Z > x >.>.>.>.>.>.>.# ) ) & Q s.& K q ) 3 ,.>.> G G Z G G G G G G G Z G G G ",
"Z q.V G G G Z Z G Z Z G Z Z g - x x $ f m x q j.f.f + < m >.~ j.! >.>.f G G G G G G G U w.Z G Z Z Z ",
"G Z G G G G Z Z G Z Z G Z L G Z <.Z G V N - 5 ) ) F n n >.>.Y ` Q :.,.n k G G G G G G P 6.G Z G G Z ",
"G <.Z G G G G G G Z Z G G G G G G G G P C : _ j.d.c n m >.>.( j.) M :.:.- G Z Z Z G Z G G Z Z G G Z ",
"Z G G G G G G G Z Z G G G G G G G G G Z Z h 2 ( ) k n m >.:.T ) ! K :.f $ N G Z Z G G Z Z Z Z Z G Z ",
"G Z G G G G G G G Z G G G G G G G G G G V f _ h.) q n m >.b ` g.` n >.>.b * G G Z L G G G G G G Z G ",
"G G G P Z G G G G I p.Z G G G G G Z G Z g b Y ` h.Y m m ,.j d.' ` n >.>.>.:.> G G G G G G Z Z G Z Z ",
"G G G Z G Z Z G G G G Z Z G G G G Z Z G > K ( f.! ( b m >.> ` ' ! n >.>.>.>.: Z Z G G Z G G P P G G ",
"G G Z Z G G G G Z G G Z Z G G G G G Z G : K Q s.g.q b m >.~ j.h.j.v K f =.. g Z Z Z Z G Z U G G G Z ",
"Z Z G G G G G G G G G Z G G Z Z G G Z Z g x u y k >.n m >.n k / d $ B z.@.Y o t G Z G Z G G G Z G Z ",
"Z Z G G G P G G G G G Z G G G G G Z Z Z - x >.>.>.>.n m ,.>.,.,.:.$ ,   X X X ` J Z Z Z G Z Z Z Z Z ",
"G G G G G G G G Z G G Z Z G Z Z G G P G - h :.>.>.>.n m >.>.>.>.< o       3 f.s.R G Z Z G Z Z G Z G ",
"Z G G G G G G G G G G Z G Z G G G Z Z Z f :.>.>.,.>.m m >.>.,.m ' f.j.' j.s.` g.Q Z Z Z G G G Z G Z ",
"G Z G G G G Z G G G G G Z Z Z L Z Z G V c >.>.>.,.,.m m >.,.,.F ` g.h.X ' s.` j.Y Z Z Z L Z G G G G ",
"G Z Z G Z G G G G G Z Z G G G G G G G > >.>.>.>.,.,.m m >.>.,.:.( f.g.` d.Q T g.R Z G G G Z Z Z Z G ",
"G Z Z G G G G G G Z G Z G G G G G G G N - f n >.>.,.m n >.>.,.>.t h.j.( ! ) g.3 k Z Z G Z Z G Z G Z ",
"G G G G G G G G G Z G G G G G G G G G H G P x n n m n f f b c b x O Q d.! ( p N Z Z P Z Z Z G Z Z G ",
"Z Z Z G G G Z Z G G G G G G Z Z G G G G G G c >.>.>.>.b h >.,.>.>.f C l H <.G G G G Z G G G <.Z G G ",
"Z Z Z G G G Z U G G G G G G Z Z G G G G G Z x >.>.>.,.c f >.>.>.>.f G G Z Z Z Z G G I I G Z Z Z Z Z ",
"G G Z G G G G Z G G G G G G G G G G G G G Z % c b c B @ . f x x c * V G G G P 6.Z Z G G G Z G G Z Z ",
"G G G G G G G Z G G G Z G Z Z G Z G Z G G r X.+.[ 8 6 > u 7 9 0  .O.a V G H Z Z P H Z Z G Z Z Z Z G ",
"G G G Z Z G G Z G G G G G Z Z G Z Z Z G N @ 6 @ @ ; V G G V ; @ 8 { { = Z Z G G G Z Z G G G G G P Z ",
"G G G G G Z G G G Z G G G G G G G G Z G G G Z H G G G G Z G G Z N > u u U Z G G Z <.G G Z Z Z Z G G ",
"G G G G G Z Z Z G G G G G G G G G G Z G G G G Z G G G G C 5.Z Z Z G Z G G H G G Z G G G Z G G Z Z G ",
"G G G G G G Z G G G G G G G G G G Z G Z G G G H G G G G Z Z Z G Z G G 6.C G G P Z G G G Z Z Z Z Z Z ",
"G G Z Z Z Z G G Z G G Z Z G G G Z G Z Z G G Z L H G G G Z Z G G G G G G G G G G Z G G G G G G Z G G ",
"G G G G G G G G G G G G G G G G G G H G G G G G G G G G G G G G G G G G G G G G G G G G G G G G G G ",
"3.1.1.2.1.2.3.2.1.2.2.2.2.3.2.2.2.2.2.2.3.3.2.2.2.2.2.2.2.1.1.2.2.2.2.2.2.2.2.2.3.2.2.2.2.1.2.3.2.2."
};
