/* XPM */
static char *_783166cceaf475e9d13f9519688ab9bTJ7HdSBDSuFG4Ah5[] = {
/* columns rows colors chars-per-pixel */
"50 50 160 2 ",
"   c #030000",
".  c #0B0B0C",
"X  c #140101",
"o  c #1E0102",
"O  c #120905",
"+  c #150A0A",
"@  c #1A0D09",
"#  c #0E0F14",
"$  c #140E12",
"%  c #0D1217",
"&  c #0F161B",
"*  c #0F181F",
"=  c #131214",
"-  c #1B1413",
";  c #14161A",
":  c #1C171B",
">  c #15191F",
",  c #1A191D",
"<  c #260001",
"1  c #230709",
"2  c #230F08",
"3  c #340303",
"4  c #3C0102",
"5  c #390608",
"6  c #3E0A0E",
"7  c #24120C",
"8  c #2B140B",
"9  c #31170C",
"0  c #36190E",
"q  c #3D1C0F",
"w  c #350E12",
"e  c #241513",
"r  c #281712",
"t  c #2B1913",
"y  c #24141A",
"u  c #2E161C",
"i  c #221B1D",
"p  c #2B1B18",
"a  c #301912",
"s  c #3C1C11",
"d  c #34141A",
"f  c #141C24",
"g  c #1C1D22",
"h  c #151F28",
"j  c #1B1F28",
"k  c #231E24",
"l  c #2C1E22",
"z  c #1D2126",
"x  c #16212A",
"c  c #18232D",
"v  c #172530",
"b  c #1A2632",
"n  c #1C2A36",
"m  c #1E2D3A",
"M  c #1F313F",
"N  c #222125",
"B  c #2A2424",
"V  c #25242A",
"C  c #28272D",
"Z  c #2A292F",
"A  c #302927",
"S  c #3D2C25",
"D  c #332C28",
"F  c #212732",
"G  c #2B2A31",
"H  c #302F35",
"J  c #21313E",
"K  c #323136",
"L  c #343339",
"P  c #38373D",
"I  c #3A393F",
"U  c #430305",
"Y  c #4E0103",
"T  c #4C0709",
"R  c #42090D",
"E  c #4E090D",
"W  c #540103",
"Q  c #5C0103",
"!  c #51090D",
"~  c #56110A",
"^  c #471319",
"/  c #640203",
"(  c #6C0001",
")  c #640609",
"_  c #740002",
"`  c #7D0001",
"'  c #472112",
"]  c #4B2313",
"[  c #522614",
"{  c #572815",
"}  c #5C2A17",
"|  c #622D19",
" . c #682F19",
".. c #6B311A",
"X. c #74351C",
"o. c #79371D",
"O. c #7A381E",
"+. c #462C29",
"@. c #46322A",
"#. c #533327",
"$. c #5A3627",
"%. c #413631",
"&. c #473932",
"*. c #453F3C",
"=. c #603524",
"-. c #644538",
";. c #233444",
":. c #253748",
">. c #273A4B",
",. c #3D3C42",
"<. c #403F45",
"1. c #533745",
"2. c #543847",
"3. c #563A48",
"4. c #424145",
"5. c #46454A",
"6. c #49474C",
"7. c #4B494D",
"8. c #564A44",
"9. c #5C4D45",
"0. c #5A4F4A",
"q. c #4D4B51",
"w. c #555356",
"e. c #69554B",
"r. c #675A54",
"t. c #6E5C54",
"y. c #73635C",
"u. c #5E5C61",
"i. c #656366",
"p. c #7E6D64",
"a. c #830002",
"s. c #8B0001",
"d. c #930002",
"f. c #9D0002",
"g. c #A30002",
"h. c #A90002",
"j. c #887066",
"k. c #84726A",
"l. c #8A776D",
"z. c #927E74",
"x. c #968278",
"c. c #98847A",
"v. c #9F8B80",
"b. c #A38A80",
"n. c #A28C82",
"m. c #A69085",
"M. c #A89286",
"N. c #AB9589",
"B. c #B0998D",
"V. c #B59C91",
"C. c #B89F93",
"Z. c #BCA396",
"A. c #C1A79A",
"S. c #CFB4A7",
"D. c #D2B7A9",
"F. c #D5B9AB",
"G. c #D7BAAC",
"H. c #DEC1B2",
"J. c #EDCDBE",
"K. c #F1D1C1",
/* pixels */
"G G L P ,.Z G C Z G Z G G 4.G Z G Z G Z Z G Z G Z G Z G C Z G G C q.Z G G G Z Z G I G G Z G G K G G ",
"Z Z G G G L Z I Z Z Z K G G G G Z G G G G G Z Z G G G G L Z G G Z Z G G G Z G Z Z K G G P G G G G G ",
"H G G K G H G Z Z G G G G G Z G G ,.G G Z G Z Z Z G G Z G G G G Z K G G G G G Z Z G Z Z G G G G G G ",
"G G Z G Z Z G G G G G G Z G G G G G G G H Z G K G G G G G G G G Z G I Z Z G G G G Z G G L Z G G Z G ",
"Z G G Z G G G G G G G G G Z G G Z G K Z G Z Z Z Z G G G G I Z L G G Z G Z G Z G G G G G Z G Z L L I ",
"G G G Z Z G H G G Z G G Z Z G G G G G G V , N i i g Z G H L G G G C G P Z Z L 5.N G G Z G G Z G G G ",
"G I G Z G Z G G Z Z Z Z G Z G Z C p [ ' ] o.{ | o.} r V G G G Z G Z G Z G G G V = G G Z G Z Z Z I G ",
"G G G G ,.G G Z Z Z Z Z Z G Z Z t X.O.O.O.O.O.O.o.| { r G G G Z Z G Z Z G G G . V G G Z G Z G Z Z Z ",
"G G G G G G Z G Z G G G Z Z G , } ..o.O.O.O.O.O.O...} | g G K G G G Z G G G , - Z Z Z Z K G G G G G ",
"G G Z G G G K I G G K G Z Z G e { | O.O.O.O.O.O.o.O.o.X.B Z Z Z Z G G G C K + C G Z Z G G G Z G G G ",
"G Z G G G G K G G G G G Z G G s ..o...o.O. .O.O.} X.O.[ i G G Z Z G G G L - k Z G Z Z Z Z G Z G Z G ",
"G Z G G G G G G G G G G L Z Z s o.O.} o.} r o.o.' 7 2 s i Z G Z Z G G G : e G G G G Z Z Z Z G G G G ",
"Z G G G G Z G G G G G G G Z Z e o.O.=.t S p.9 -.%.e.#.. N Z G ,.G G G N 7 V G H G G Z Z G G G G G H ",
"P G G ,.G G H G G L Z G G G G , | $.9.F.F.x.v.k.V.x.N.k ; Z G H G G N 7 : G G G G G Z G G G Z G G G ",
"Z ,.G L G G Z G G Z G G G G L Z A z.t.J.C.8.V.8.b.M.n.Z , Z G G G N &.7 Z G G Z G Z Z G G G 7.G G ,.",
"Z G G G Z Z Z G L Z Z G G G G Z N V.F.m.K.K.c.D.y.G.K.B N G G G g y.D , Z Z Z Z G ,.Z G G Z P G G 4.",
"G Z G G G G Z Z Z G Z G G G G L G N r.F.n.n.Z.B.A.V.M., G G G f x %.c.z.V G Z Z G 7.Z G L G G G G Z ",
"G Z K Z G G G G P G Z L H G G G Z G - b.K.K.K.K.K.H.0.V Z Z > >.z @.S.r.C G G G Z G G G G G Z G Z K ",
"G G G G G G G G G Z Z G G G G G C % ( 3 @.j.l.z.t.+ f N Z V n n 8 z z N G G G G G G Z G G G G G Z Z ",
"G G G G G G G G Z Z Z G Z G G Z f g d.E t X.3 X.0 s.j m f c >.n n m :.> G G Z u.G G G G Z Z Z G L Z ",
"G G G G G G G G Z Z Z G G G Z , :.E a.w x 8 ( 2 O / 5 >.>.>.>.>.>.>.c x Z G Z G G G Z Z Z Z Z G G G ",
"G G G G G G G G Z G Z G G G C x >.Q h.R c . h.~ . h.a.n >.>.>.>.>.>.J x g G G G G G Z Z Z Z Z 7.P G ",
"Z G G G G G Z G G G Z G Z Z , :.>.4 ( w J * a.W * ( ( $ :.:.:.>.>.>.>.x , G Z G G G G G G G Z G G G ",
"Z q.C G G G Z Z G Z Z G Z Z f >.>.Q h.! >.m 1 + f d.h.w h m f % h x > k G G G G G G G I w.Z G Z Z Z ",
"G Z G G G G Z Z G Z Z G Z V n >.;.W _ U >.>.n n F ( ( 6 ; N V G 5.L Z Z G G G G G G G L 6.G Z G G Z ",
"G ,.Z G G G G G G Z Z G G ; ;.;.M ( h.) >.>.m n c s.h.) > G G G G G G Z G G Z Z Z G Z G G Z Z G G Z ",
"Z G G G G G G G Z Z G G N % f ;.J Q ( Y ;.>.m n k ( / 3 h G G G G Z G Z Z G G Z Z G G Z Z Z Z Z G Z ",
"G Z G G G G G G G Z G G = b >.>.n _ f._ b >.m n w ( g.) f C G G G G Z H 6.G G G Z K G G G G G G Z G ",
"G G G L Z G G G G P i., ;.>.>.>.n _ ` s.j >.m m U g._ U b g G Z G G G G Z Z G G G G G G G Z Z G Z Z ",
"G G G Z G Z Z G G G G > >.>.>.>.n Q ` _ , >.m b / Q d.) J , G G Z G G Z Z G G Z Z G G Z G G L L G G ",
"G G Z Z G G G G Z G G g . *.f J v h.g.h.! >.m b w f.a.W J , Z Z G Z G G G G G Z Z Z Z G Z I G G G Z ",
"Z Z G G G G G G G G y o U +.l.B % d ^ k n >.m n :.k u i x , G L H G Z Z G G G G G Z G Z G G G Z G Z ",
"Z Z G G G L G G G i _ X X X   < # ;.>.>.>.>.m n >.>.>.:.x ; C Z G G G G G G G Z 6.Z Z Z G Z Z Z Z Z ",
"G G G G G G G G Z T a.d.4       o 1 >.>.>.>.m n >.>.>.;.h , K G G Z G G Z G G G Z G Z Z G Z Z G Z G ",
"Z G G G G G G G G W f._ a.h.` h.d.` m >.>.>.m n >.>.>.:.;.f Z G G C G G Z G Z Z Z Z Z Z G G G Z G Z ",
"G Z G G G G Z G G U h.` a.` X g.f._ n >.>.>.m n >.>.>.>.>.c V K C <.G G Z G Z G Z Z Z Z K Z G G G G ",
"G Z Z G Z G G G G T f.Y W s.` f.d./ ;.>.>.>.m m >.>.>.>.>.:., G G Z Z G Z G Z Z Z Z G G G Z Z Z Z G ",
"G Z Z G G G G G G k 4 f.( Q / h.g.y >.>.>.>.n m >.>.:.n f ; N Z G G Z Z G G Z G Z Z Z G Z Z G Z G Z ",
"G G G G G G G G G Z V w / Q s.W O x b c b f f n m n n x G G G G G G G Z Z G K Z Z Z L Z Z Z G Z Z G ",
"Z Z Z G G G Z Z G G G G G G l C f >.>.>.>.h b >.>.>.>.c Z Z G L G G G G G ,.G G G G Z G G G ,.Z G G ",
"Z Z Z G G G Z I G G G G G G Z Z j >.>.>.>.f c >.>.>.>.x Z G Z Z G G G G Z Z Z Z G G P P G Z Z Z Z Z ",
"G G Z G G G G Z G G G G G G G V = c x x f . @ B c b c & Z G Z ,.Z G G G G G L 6.Z Z G G G Z G G Z Z ",
"G G G G G G G Z G G G Z G Z V a o.| q 0 8 i , 7 9 ] O...t I G Z G K G Z G H Z Z L H Z Z G Z Z Z Z G ",
"G G G Z Z G G Z G G G G G Z - [ [ 9 @ : N Z Z V : @ @ 7 @ V G G G G G G Z Z G G G Z Z G G G G G L Z ",
"G G G G G Z G G G Z G G G G i i i V Z G G G Z H G G G G Z G G Z G C G G I Z G G Z ,.G G Z Z Z Z G G ",
"G G G G G Z Z Z G G G G G G G G G G Z G G G G Z G G G G C 5.Z Z Z G Z G G H G G Z G G G Z G G Z Z G ",
"G G G G G G Z G G G G G G G G G G Z G Z G G G H G G G G Z Z Z G Z G G 6.C G G L Z G G G Z Z Z Z Z Z ",
"G G Z Z Z Z G G Z G G Z Z G G G Z G Z Z G G Z K H G G G Z Z G G G G G G G G G G Z G G G G G G Z G G ",
"G G G G G G G G G G G G G G G G G G H G G G G G G G G G G G G G G G G G G G G G G G G G G G G G G G ",
"3.1.1.2.1.2.3.2.1.2.2.2.2.3.2.2.2.2.2.2.3.3.2.2.2.2.2.2.2.1.1.2.2.2.2.2.2.2.2.2.3.2.2.2.2.1.2.3.2.2."
};
