/* XPM */
static char *a0b0dfdc6b944901864f9f526f0bc432TAxFBy5qTIhOqIxW[] = {
/* columns rows colors chars-per-pixel */
"50 50 99 2 ",
"   c #31374F",
".  c #343B52",
"X  c #352C64",
"o  c #363266",
"O  c #383167",
"+  c #3C356A",
"@  c #3D3A6C",
"#  c #413C6E",
"$  c #443E71",
"%  c #3A436D",
"&  c #3E4670",
"*  c #3F4871",
"=  c #454273",
"-  c #4A4476",
";  c #434C75",
":  c #494977",
">  c #4C4778",
",  c #474F78",
"<  c #4B4D7A",
"1  c #504F7D",
"2  c #465077",
"3  c #475178",
"4  c #4A557C",
"5  c #4E597F",
"6  c #50597F",
"7  c #4F5A80",
"8  c #535582",
"9  c #525D82",
"0  c #585C87",
"q  c #556286",
"w  c #586387",
"e  c #576489",
"r  c #596689",
"t  c #5D6A8D",
"y  c #5E6E91",
"u  c #5F7092",
"i  c #65668F",
"p  c #606C8F",
"a  c #616E91",
"s  c #647394",
"d  c #6A7697",
"f  c #677897",
"g  c #697897",
"h  c #667798",
"j  c #6C7798",
"k  c #677998",
"l  c #6B7B9A",
"z  c #717E9D",
"x  c #6E819F",
"c  c #71819E",
"v  c #6F82A1",
"b  c #7385A2",
"n  c #7887A3",
"m  c #7A86A4",
"M  c #7589A6",
"N  c #7A88A5",
"B  c #7B89A6",
"V  c #768BA8",
"C  c #778CA9",
"Z  c #788DA9",
"A  c #7B8CA8",
"S  c #7C8DA8",
"D  c #7E8DA8",
"F  c #7F8EA9",
"G  c #7E90AB",
"H  c #7D90AC",
"J  c #7C91AD",
"K  c #7D93AD",
"L  c #7F96B1",
"P  c #828FAB",
"I  c #8191AC",
"U  c #8493AE",
"Y  c #8194AE",
"T  c #8296B0",
"R  c #8496B0",
"E  c #8497B1",
"W  c #8996B1",
"Q  c #8798B1",
"!  c #849AB4",
"~  c #879BB4",
"^  c #879CB5",
"/  c #8898B1",
"(  c #889DB5",
")  c #8A9CB5",
"_  c #8B9CB5",
"`  c #8A9FB8",
"'  c #8CA1B9",
"]  c #8FA1B9",
"[  c #8EA4BB",
"{  c #91A3BB",
"}  c #92A5BC",
"|  c #92A6BC",
" . c #95A8BE",
".. c #97AAC0",
"X. c #9AACC1",
"o. c #99ACC2",
"O. c #9BB0C4",
"+. c #9CB1C6",
"@. c #A1B4C8",
/* pixels */
"h y t h t t h t s h t y s r s h r s s r s h r h h w s s t h y t h t t h t s h t y s r s h r s s r s ",
"> # > X - > > $ O > > $ X $ > O = > + > > # + > + > - X + > - X > > @ > > - X > = X > > > > O > - O ",
"l c +.4 ( ( G q r O.^ G q ] ^ a g c 3 c c 5 I ( r { [ Y s | ] s g c 9 | H l 3 | ] a { ] ] N ; ( b q ",
"F t s 5 ; h ; t 9 q M h 7 ( H t g a N 9 d t ( x 4 5 9 t & r x l & N q 9 b 3 ; ; e p N L g 4 p z 9 N ",
"h r I t n ; q T r F 4 5 4 9 q r c M r q ] k 9 5 ( ( 5 d Q g q q d ^ l * e F b r U p % t g 9 ] ~ E 5 ",
"9 Y b t H 7 k t 7 Z 5 c Q t q d r 5 q q e V t s ~ b q N H 7 / F p M b 4 o.H w d ^ ~ 3 q c r 9 Z b 7 ",
"w F h 9 b q q l ; 9 5 I q % | H 5 ; ( l 9 s w b M 9 r q q 4 b L l 5 9 ; I Z s 5 e b 5 ] H q 4 4 q a ",
"5 r q b s s t s 9 ~ p q F s t t ; b M t t Z Z 4 t 9 ..( 5 b 4 s l ; F l % 9 d F q q 4 b g a F 5 b b ",
"p b g Z Z ( I r * l r 5 g g ; b N T s r l e b r ( s  .~ N t l 9 t q ( C t q ( g t Q & C s g t 4 s s ",
"] r % 5 5 & 5 3 3 9 r / ] h t M t 9 4 k g % 3 b H 9 g b h ; s H Z 9 l l h 5 h h 7 g ; ; * e s Z q % ",
"F 9 N j W 9 z U P j ; W U N , s U t a F 9 N N s 9 P s m I a 9 ( I 9 d F p P F N ; P P 9 m W E F 9 N ",
"b ; r r E t 4 b t ; 7 I M M r ] H k q q 5 5 4 5 I H q 4 x H 4 h M Z * 9 4 q Z q % 9 M c z ` M t ; p ",
"4 I ( a w q q 5 ; F t 5 q t % t h t h Q l p ( b r y s U 9 4 s b q s 9 | M ; t r c ; q r 5 b l 4 I ] ",
"; ( q d ( t ..q 5 M 9  .r 4 I g * r s l 5 4 x C a 3 ( H t g ] t s b 9 ] b q c ( g 9 +./ 4 * a q d H ",
"9 U t | M 9 Y r t b 4 3 4 N c 9 j ( q % l b * 9 7 N ^ x 3 7 b t F ] b 9 g 9 ( H g 4 g H t j ] g % e ",
"| H 5 9 9 9 9 w & 9 5 b r c 9 q c b q 5 Q k r | ( 7 w & I ( * q ; g Z 4 9 t ; h q s t 5 w c b q s 9 ",
"E b 5 z g ( { F  .I ; b N ; H l ; r 9 / b t b 7 H r j I / ^ U s b 9 s 5 F T 9 4 ] H r N ; l g l Z 4 ",
"l 5 b b 3 y f r g ; * t 9 r I b 5 Q N b t q l ; s r E w F T G ; r t N 9 Q M x q v v 9 F r 9 r 5 9 g ",
"o o 8 = $ @ # o @ = : @ # i 0 : @ 8 = o @ < 4 = # 1 8 < @ 4 : + 4 0 8 @ : < = - - : @ : @ o # , 0 8 ",
"& N F 9 N c  .; | Q I r r  ./ M 5 Q / r b N 5 F N 9 N ( q ..( c j ] ( q N N r ..I c 4 ..E q { ] ` N ",
"9 M t 9 j t M 4 5 x 5 5 q g H k r | H s s 9 j 4 t 9 | b ; 4 u l % y M l % d 4 y b ; % 7 g s E H l 5 ",
"E 4 9 | x q z q s ; 9 ~ 9 h 7 9 % e t q z M a p [ t r 9 E ( 3 p F j q r j ^ g & q b c 9 l 9 3 l g 9 ",
"H y 4 Y 5 I b j I 4 h t t Q 4 d ( r 5 r s e 5 7 g M e r ] b r P H 5 U g j Z b 5  .Y w z ] Q & 5 a 9 ",
"3 & c W s E g t M 7 h g ; 4 3 Q t * ] T ; % ( g & e 5 ( Z t ; r h q Q ^ a e t 3  .M s 9 s C 5 ] ^ r ",
"b g ] l 4 q 5 t r t ; r 9 Q p q g q c f ; b M t d { H 3 r ; @.I & s ; l l ; j r ; t r F 5 q 5 Z l q ",
"&  .Z h w b b Q I { ( h ; M t q b h & s l Q g a g t b q ( l ..~ c l l 9 t 9 ] M 9 r | g h N % H s b ",
"& 4 N 9 r 5 ; 5 5 9 r % 4 / x s s M 9 r t s g 4 4 p Z t a a b t b h l r a s c a r t a t 5 q ; t g l ",
"b q g M 7 g b h b 4 & a r 4 N b 4 I F G s q l 4 l w U t U ~ E ; y q c 9 ( Z x q C b 9 T q t a 9 q t ",
"^ M 9 h s ( I b / F 3 Z b ; Y b 3 q 5 F Z t j e H w a N / ` N l h 9 f 5 N ( 4 4 U Y r l 2 h l g I 4 ",
"( ( 9 a r 4 p r & t 5 a 9 N 9 4 F V w 3 Q l r U N q s ; c N ; 5 5 b H 4 5 9 9 v t q r r r N M q q 5 ",
"4 N 9 ] M 5 H r t l 3 r 9 b Z t t E 9 ; t l ; y r z ^ b 5 r Z t F | d s l 9 ( L h 5 Z H t t / g & h ",
"& d h t d 5 c 4 ; s q z q z I d ; k q q 3 7 M s 7 r ` b 9 g N q l N a b h r d c t w F b ; % 7 e M H ",
"g 4 b b 3 t h r g ; ; t 9 r I b 5 Q N b t q l ; y r E q F T F ; r t N 9 E M x q v v 9 Z r 7 r 5 9 g ",
"E b 5 c g ( { P ..I ; b N ; G l ; r q ( b t b 7 H r j I / ^ E s b 9 s 5 F T 9 4 ] H r F ; l g l C 4 ",
"| H 5 9 9 9 9 w & 9 5 b r l 9 q z b 9 5 Q f r  .( 5 q & U ( * q ; k C 5 9 t ; h q s t 5 w z b q h 9 ",
"9 E t | M 9 Y r r b 4 3 4 N x 9 l ( q % z b * 7 5 N ^ x 3 5 b t F ] b 9 g 9 ( H g 4 g H t l ] g % e ",
"; ( q d ( t ..q 5 b 9  .r 4 I j * r s g 5 4 l Z s 3 ( H t g ] t h b 9 ] b q b ( g 9 +.( 4 * a q h H ",
"4 I ~ p r q q 5 ; F t 9 q t % t h t s Q l t ( b r t s E 9 4 s b q s 9  .M ; t r c ; r r 4 b l 4 I ] ",
"x ; r r Y t 4 b t ; 9 F M M r ] H g w w 6 5 4 5 I H q 4 l Z 4 s b Z * q 4 q Z q % 9 b c z ` M t ; p ",
"F 9 N j W 9 z U P j ; W U N , s U p a F 9 N N d 9 I s N U a 9 ( U w d F p P F N ; U P 9 n / E F 9 N ",
"s 4 5 % { w % 5 5 * 5 4 ; 9 t / ( s s b t 5 4 l h % 4 N H 7 j b s ; h Y b 9 l l h 4 h s 7 g ; ; & t ",
"% | C t s c g Z C ( F q ; x q 9 g g ; b F Y s r g t b r ( s ..~ b y g 9 r r ( M t r ` h a E & H s g ",
"h c ( x 5 t w b s s t a q ~ t q I t t t ; N b t t F N 4 p 9 o.Q 4 b 4 h g ; U d & q g F q q 4 M h s ",
"q 4 I ( r Z s q b q e g ; 9 6 F 9 %  .H 4 4 ( g 9 s q N b 9 r q q 4 M L g 5 9 ; E C y 9 e b 5 | H 9 ",
"v r 4 b 9 Y x a Z 5 l r 9 N 5 b E r r h r 5 q q r C r g ~ b q F H 5 ( N a M v 4 +.H q z ~ Q ; r z r ",
"( 5 7  .s t I p b ; t I r F 4 5 4 9 w w b b r r ] h 9 7 ` Q 4 j Q s e q z ~ g & r G c t I r & y k q ",
"9 g r s F r h 4 ; h ; p 9 e C s 9 ( Z t j p N 9 j r ] l 4 7 9 t & r v g * N 9 e b , ; ; r p F H f 3 ",
"3 Q F 5 l b o.4 ] ^ F 9 t o.^ Z q [ ^ t l x 3 b l 5 E ( q  .] I d [ ] a l l q  .G j 4  .] t  .] ] n ",
"X + > # > # > X > > > $ + > > $ X $ > O = > + > > # + > + > = X # > = X > > @ > > = o > $ o > > > > ",
". . . . . . . . . . . . . . . . .   . . . . . . . . . . .   . . . . . . . . . . . . . . . .   . . . "
};
